PathFileType	4	(X/Y/Z)	C:\Users\Willi\Documents\Github\OpenSimMatlabBasic\ExampleData\Trials\dynamic06\marker_experimental.trc
DataRate	CameraRate	NumFrames	NumMarkers	Units	OrigDataRate	OrigDataStartFrame	OrigNumFrames
150.000000	150.000000	2	179	mm	150.000000	82	330
Frame#	Time	LFHD			LBHD			RFHD			RBHD			C7			T10			CLAV			STRN			RBAK			LSHO			LUPA			LELB			LFRA			LWRB			LWRA			LFIN			RSHO			RUPA			RELB			RFRA			RWRB			RFIN			SACR			LASI			RASI			LT1			LT2			LT3			LS1			LS2			LS3			LHEE			LTOE			RT1			RT2			RT3			RS1			RS2			RS3			RHEE			RTOE			SACO			SACA			SACL			SACP			RWRA			LM5D			RM5D			LKNE			RKNE			LANK			RANK			LKJC			RKJC			LAJC			RAJC			LTHI			RTHI			LTIB			RTIB			P_ForcePlate1			P_ForcePlate2			P_ForcePlate3			funktRKJC			funktLKJC			funktRHIP			funktLHIP			LHJC			RHJC			LKNEshank			RKNEshank			LKJCshank			RKJCshank			LHF			COP_FP1			VECTIP_FP1			RawCentreFP1			COP_FP2			VECTIP_FP2			RawCentreFP2			COP_FP3			VECTIP_FP3			RawCentreFP3			LPelvisAngles			RPelvisAngles			LFootProgressAngles			RFootProgressAngles			LHipAngles			RHipAngles			LKneeAngles			RKneeAngles			LAnkleAngles			RAnkleAngles			LFFootAngles			RFFootAngles			LAbsAnkleAngle			RAbsAnkleAngle			RNeckAngles			LNeckAngles			RSpineAngles			LSpineAngles			LShoulderAngles			LElbowAngles			LWristAngles			RShoulderAngles			RElbowAngles			RWristAngles			RThoraxAngles			LThoraxAngles			RHeadAngles			LHeadAngles			LHipPower			LKneePower			LAnklePower			RHipPower			RKneePower			RAnklePower			LWaistPower			RWaistPower			LNeckPower			RNeckPower			LShoulderPower			RShoulderPower			LElbowPower			RElbowPower			LWristPower			RWristPower			F_ForcePlate1			F_ForcePlate2			F_ForcePlate3			LHipForce			RHipForce			LKneeForce			RKneeForce			LAnkleForce			RAnkleForce			LNormalisedGRF			RNormalisedGRF			LGroundReactionForce			RGroundReactionForce			LGRF			RGRF			LWaistForce			RWaistForce			LNeckForce			RNeckForce			LShoulderForce			RShoulderForce			LElbowForce			RElbowForce			LWristForce			RWristForce			Force_FP1			RawForceFP1			Force_FP2			RawForceFP2			Force_FP3			RawForceFP3			LHipMoment			RHipMoment			LKneeMoment			RKneeMoment			LAnkleMoment			RAnkleMoment			LGroundReactionMoment			RGroundReactionMoment			LWaistMoment			RWaistMoment			LNeckMoment			RNeckMoment			LShoulderMoment			RShoulderMoment			LElbowMoment			RElbowMoment			LWristMoment			RWristMoment			RawMomentFP1			RawMomentFP2			RawMomentFP3			
		X1	Y1	Z1	X2	Y2	Z2	X3	Y3	Z3	X4	Y4	Z4	X5	Y5	Z5	X6	Y6	Z6	X7	Y7	Z7	X8	Y8	Z8	X9	Y9	Z9	X10	Y10	Z10	X11	Y11	Z11	X12	Y12	Z12	X13	Y13	Z13	X14	Y14	Z14	X15	Y15	Z15	X16	Y16	Z16	X17	Y17	Z17	X18	Y18	Z18	X19	Y19	Z19	X20	Y20	Z20	X21	Y21	Z21	X22	Y22	Z22	X23	Y23	Z23	X24	Y24	Z24	X25	Y25	Z25	X26	Y26	Z26	X27	Y27	Z27	X28	Y28	Z28	X29	Y29	Z29	X30	Y30	Z30	X31	Y31	Z31	X32	Y32	Z32	X33	Y33	Z33	X34	Y34	Z34	X35	Y35	Z35	X36	Y36	Z36	X37	Y37	Z37	X38	Y38	Z38	X39	Y39	Z39	X40	Y40	Z40	X41	Y41	Z41	X42	Y42	Z42	X43	Y43	Z43	X44	Y44	Z44	X45	Y45	Z45	X46	Y46	Z46	X47	Y47	Z47	X48	Y48	Z48	X49	Y49	Z49	X50	Y50	Z50	X51	Y51	Z51	X52	Y52	Z52	X53	Y53	Z53	X54	Y54	Z54	X55	Y55	Z55	X56	Y56	Z56	X57	Y57	Z57	X58	Y58	Z58	X59	Y59	Z59	X60	Y60	Z60	X61	Y61	Z61	X62	Y62	Z62	X63	Y63	Z63	X64	Y64	Z64	X65	Y65	Z65	X66	Y66	Z66	X67	Y67	Z67	X68	Y68	Z68	X69	Y69	Z69	X70	Y70	Z70	X71	Y71	Z71	X72	Y72	Z72	X73	Y73	Z73	X74	Y74	Z74	X75	Y75	Z75	X76	Y76	Z76	X77	Y77	Z77	X78	Y78	Z78	X79	Y79	Z79	X80	Y80	Z80	X81	Y81	Z81	X82	Y82	Z82	X83	Y83	Z83	X84	Y84	Z84	X85	Y85	Z85	X86	Y86	Z86	X87	Y87	Z87	X88	Y88	Z88	X89	Y89	Z89	X90	Y90	Z90	X91	Y91	Z91	X92	Y92	Z92	X93	Y93	Z93	X94	Y94	Z94	X95	Y95	Z95	X96	Y96	Z96	X97	Y97	Z97	X98	Y98	Z98	X99	Y99	Z99	X100	Y100	Z100	X101	Y101	Z101	X102	Y102	Z102	X103	Y103	Z103	X104	Y104	Z104	X105	Y105	Z105	X106	Y106	Z106	X107	Y107	Z107	X108	Y108	Z108	X109	Y109	Z109	X110	Y110	Z110	X111	Y111	Z111	X112	Y112	Z112	X113	Y113	Z113	X114	Y114	Z114	X115	Y115	Z115	X116	Y116	Z116	X117	Y117	Z117	X118	Y118	Z118	X119	Y119	Z119	X120	Y120	Z120	X121	Y121	Z121	X122	Y122	Z122	X123	Y123	Z123	X124	Y124	Z124	X125	Y125	Z125	X126	Y126	Z126	X127	Y127	Z127	X128	Y128	Z128	X129	Y129	Z129	X130	Y130	Z130	X131	Y131	Z131	X132	Y132	Z132	X133	Y133	Z133	X134	Y134	Z134	X135	Y135	Z135	X136	Y136	Z136	X137	Y137	Z137	X138	Y138	Z138	X139	Y139	Z139	X140	Y140	Z140	X141	Y141	Z141	X142	Y142	Z142	X143	Y143	Z143	X144	Y144	Z144	X145	Y145	Z145	X146	Y146	Z146	X147	Y147	Z147	X148	Y148	Z148	X149	Y149	Z149	X150	Y150	Z150	X151	Y151	Z151	X152	Y152	Z152	X153	Y153	Z153	X154	Y154	Z154	X155	Y155	Z155	X156	Y156	Z156	X157	Y157	Z157	X158	Y158	Z158	X159	Y159	Z159	X160	Y160	Z160	X161	Y161	Z161	X162	Y162	Z162	X163	Y163	Z163	X164	Y164	Z164	X165	Y165	Z165	X166	Y166	Z166	X167	Y167	Z167	X168	Y168	Z168	X169	Y169	Z169	X170	Y170	Z170	X171	Y171	Z171	X172	Y172	Z172	X173	Y173	Z173	X174	Y174	Z174	X175	Y175	Z175	X176	Y176	Z176	X177	Y177	Z177	X178	Y178	Z178	X179	Y179	Z179	

83	0.5466666666666667	-582.15380859375	1284.64208984375	319.7610473632811	-709.873046875	1279.989501953125	293.0006103515623	-580.4249267578125	1285.21337890625	434.1481933593749	-716.5128173828125	1291.015625	459.7844238281248	-761.4940795898438	1142.702270507812	383.2978515624998	-797.3771362304688	996.2239990234375	383.1510925292967	-648.4481201171875	1097.80078125	369.4596252441405	-623.18701171875	1040.986450195312	366.593780517578	-777.2164306640626	1065.888061523438	479.4723510742186	-719.1356811523438	1114.2724609375	237.3022155761717	-773.0110473632812	925.6574096679688	189.4990997314452	-777.0778198242188	862.7654418945312	173.8785247802733	-778.3818359375	790.1236572265625	155.391403198242	-761.8630981445312	667.0577392578125	140.6061553955077	-689.2703247070312	666.8140869140625	143.2688140869139	-702.9342041015625	615.9688720703125	105.8844528198241	-695.7169189453126	1110.672485351562	513.9815673828123	-701.0785522460939	1011.474060058594	571.4698486328123	-687.0968017578126	862.232666015625	622.7485961914061	-617.7563476562501	725.7377319335938	614.2222900390624	-594.4591064453126	689.8046264648438	610.5187988281249	-508.1887817382813	666.3784790039062	594.7549438476561	-803.1997680664062	796.1292724609375	372.6774597167967	-670.4735717773438	755.609130859375	264.7253112792968	-669.8919677734376	753.0797729492188	490.1296997070311	-636.6478881835938	581.67431640625	221.8108520507811	-634.9110717773438	459.7604675292969	238.4438476562499	-580.7886352539062	496.8700561523438	233.7136230468749	-651.3740234375	274.108642578125	237.4924774169921	-756.963134765625	221.079574584961	274.6539306640624	-621.8319091796875	180.9027557373047	241.4040222167968	-733.5519409179688	109.7197341918945	326.4601440429686	-603.1937866210938	57.31622314453126	274.2475891113281	-711.2443237304689	539.7947998046875	503.107696533203	-767.4365234375001	439.3491516113282	482.8832397460936	-716.0002441406251	438.9085693359376	481.5953063964843	-801.6790771484376	234.0539855957032	476.9197387695311	-903.1346435546875	165.8489685058594	455.185821533203	-760.4203491210938	146.4517211914063	459.0548095703124	-879.8319702148438	54.25825119018557	385.585479736328	-728.83544921875	46.81935119628909	429.9979858398436	-767.4857788085938	784.8680419921875	378.0210876464842	-762.6206665039062	783.3418579101562	377.9913940429686	-767.4989624023438	784.9252319335938	372.9224243164061	-752.2215576171875	833.51708984375	378.5274047851561	-542.5471801757814	724.8749389648438	573.0579223632811	-626.5228881835938	41.45854568481447	247.3782501220702	-752.486083984375	28.88673591613772	458.5587158203124	-572.8241577148438	427.6056823730469	245.6077117919921	-733.8186645507814	385.2953186035157	468.0156860351561	-708.4570922851562	104.8710632324219	277.442169189453	-843.3825073242188	65.55743408203128	435.0172729492186	-569.0722045898438	423.3341979980469	297.5426940917968	-743.5862426757812	385.3656005859375	416.159942626953	-684.8477783203125	108.3964309692383	308.7723693847656	-823.5559692382812	70.84013366699222	401.2933959960936	-650.1174926757812	566.23095703125	218.2089996337889	-714.6284790039064	535.3262939453125	513.4510498046874	-681.5385131835938	267.0567321777344	225.5564422607421	-828.8840332031251	220.7654113769532	488.2386474609374	256.7200012207031	0.07899999618532701	396.4200134277344	-254.2699890136719	-0.2560999989509441	231.3000030517578	-740.9854125976562	2.587773465171436e-14	422.6154785156249	0	0	0	0	0	0	0	0	0	0	0	0	-719.1287231445312	696.414794921875	325.7789611816405	-719.48583984375	694.7730102539062	427.7453002929686	-568.7822875976562	429.2031860351562	249.0963439941405	-737.0878295898439	390.5200500488282	465.6676330566405	-561.6696166992188	424.1597290039062	300.6088867187499	-738.5191040039062	388.6359252929688	412.9537658691405	0.02177936770021915	1.214484095573425	0.04927052184939377	256.7200012207031	0.07899999618532701	396.4200134277344	256.7200012207031	0.07899999618532701	396.4200134277344	256.7200012207031	0.07899999618532701	396.4200134277344	-254.2699890136719	-0.2560999989509441	231.3000030517578	-254.2699890136719	-0.2560999989509441	231.3000030517578	-254.2699890136719	-0.2560999989509441	231.3000030517578	-740.9854125976562	2.587773465171436e-14	422.6154785156249	-734.0723266601562	259.1600036621094	418.7289428710936	-254.2699890136719	-0.2560999989509441	231.3000030517578	-17.41975212097168	-0.3335148394107818	0.5691760182380655	-17.41975212097168	0.3335148394107818	-0.5691760182380697	-26.24059104919434	-18.26144981384277	-3.903745174407961	-6.256697654724121	-14.14558601379395	-0.2440729141235351	-46.19139099121094	-1.531163811683655	-4.543285369873052	-12.97046852111816	10.45668506622314	1.508391499519346	-49.29397583007812	-28.64950942993164	4.285336971282955	-9.541651725769043	-38.55148696899414	2.311104774475099	5.32245397567749	14.86283683776855	1.195969581604004	-8.648152351379395	13.6133279800415	-1.694246888160708	3.18055471858951e-15	7.951386796473778e-16	2.782985405235602e-15	7.951386796473773e-16	-1.987846699118442e-16	2.286023763543215e-15	-0.463260293006897	0	-5.673302350029614e-17	-12.93662452697754	0	-1.584279581873418e-15	2.748825311660767	6.448309898376465	-3.19085693359375	2.748825311660766	-6.448309898376465	3.190856933593751	14.3760232925415	-5.777742862701416	-1.264485836029051	14.3760232925415	5.777742862701416	1.264485836029054	14.6314640045166	-6.206161975860595	10.70946979522705	-35.9466552734375	-2.318624459096696e-12	-6.390042410594497e-15	-5.387359619140626	106.9224166870117	7.199131011962884	4.292163372039792	18.18206787109375	24.33720779418945	-54.26833724975586	-1.733402267209416e-12	-6.645954550796152e-15	-7.696176052093506	89.33465576171875	3.248371362686151	-2.990959167480469	6.091367721557617	-0.8478506207466132	-2.990959167480469	-6.091367721557617	0.8478506207466125	0.2597420215606687	-0.2443673312664031	2.357377529144287	0.2597420215606692	0.2443673312664031	-2.357377529144287	2.471033229707949e-34	0.03295238688588142	-2.017751756202995e-18	-2.425500804539903e-33	-0.3234519064426422	1.980571709515455e-17	1.513252033084194e-35	0.002017992548644543	-1.235664057700374e-19	-6.36969723546578e-34	-0.08494289964437485	5.201252507988925e-18	1.689444804772408e-34	0.02252953872084618	-1.379536374037531e-18	-4.567449020080202e-33	-0.6090907454490662	3.729605159022371e-17	nan	nan	nan	nan	nan	nan	nan	nan	nan	nan	nan	nan	-1.114716836232928e-34	-0.01486527174711227	9.102353731778315e-19	-1.789951893345065e-34	-0.02386984787881374	1.461606640046174e-18	-3.23348506296471e-35	-0.004312003962695599	2.640340925412934e-19	9.207316275291761e-36	0.001227838802151382	-7.518344294618051e-20	-1.376495989600655e-36	-0.0001835621951613575	1.123994273744091e-20	6.102957060695615e-36	0.0008138579432852566	-4.983442626024688e-20	256.7200012207031	0.07899999618532701	396.4200134277344	-254.2699890136719	-0.2560999989509441	231.3000030517578	-734.0723266601562	259.1600341796875	418.7289428710936	0.02177936770021915	1.214484095573425	0.04927052184939377	-0.402382731437683	-5.634058475494385	-0.4226157963275907	0.3426829874515533	0.5105684995651245	0.2023587822914124	-1.505221366882324	-6.338859558105469	0.3417457938194277	0.2572643756866455	-0.08627399802207947	0.01836846582591537	-6.968325614929199	0.5797496438026428	0.007046343758701389	0	0	0	0	0	0	0	0	0	0	0	0	0	0	0	0	0	0	nan	nan	nan	nan	nan	nan	nan	nan	nan	nan	nan	nan	-0.04731700941920279	0.4155161380767822	-0.1249716430902481	-0.1545452028512955	0.3635598719120026	0.04501613602042194	0.09043034166097641	0.1763502508401871	-0.04892485588788986	0.08460656553506851	0.1629914194345474	0.01542804669588804	-0.02387306839227676	0.04899035766720772	-0.02410459332168103	-0.008660928346216682	0.04217006266117096	0.03061344660818576	256.7200012207031	0.07899999618532701	396.4200134277344	0	0	0	-254.2699890136719	-0.2560999989509441	231.3000030517578	0	0	0	-734.0723266601562	259.1600341796875	418.7289428710936	0	0	0	-68.78678131103516	-7.425235271453857	14.03229808807372	10.41515064239501	24.1050205230713	103.2221221923828	33.50553512573241	3.861625671386721	34.33983612060548	100.3136672973633	23.33287048339844	39.07141494750978	11.999192237854	1.059070825576782	0.7487993836402906	-613.799072265625	18.57413291931152	5.148150920867844	nan	nan	nan	nan	nan	nan	nan	nan	nan	nan	nan	nan	nan	nan	nan	nan	nan	nan	3.716512441635129	-3.142796516418456	23.1213436126709	-18.08804512023926	-2.50343894958496	5.896121025085447	12.76822376251221	0.1396633088588718	5.546315193176271	11.94740295410156	0.01472678966820259	3.094555139541627	-1.131384611129761	-1.121733444972438e-16	1.364776611328125	-0.6445688009262087	-9.383152771086284e-16	1.858445167541504	0	0	0	0	0	0	0	0	0	
84	0.5533333333333333	-574.0641479492188	1283.438842773438	319.1868896484374	-701.8789672851562	1278.862548828125	292.7628784179686	-572.0425415039062	1283.994995117188	433.5786743164061	-708.074462890625	1289.868530273438	459.5651855468748	-753.3779907226562	1141.83447265625	382.951202392578	-789.7136840820312	995.4727172851562	382.9171447753905	-640.3217163085938	1096.608154296875	369.3763427734374	-615.1931762695312	1039.72509765625	366.754913330078	-769.4111328125001	1065.24560546875	479.5238342285155	-710.3590087890625	1112.623291015625	236.9003448486327	-765.95263671875	924.1383056640625	190.2254028320311	-770.622314453125	861.2489624023438	174.9806671142577	-772.902587890625	788.5706787109375	157.0544128417967	-758.1640625	665.1775512695312	143.3429718017577	-685.5311279296875	664.067138671875	145.5648651123046	-700.0643310546875	613.1242065429688	108.6251220703124	-687.5973510742189	1109.739868164062	513.8251342773435	-692.3087158203126	1010.697998046875	571.4151611328123	-676.9973144531251	861.65087890625	623.3238525390624	-606.9936523437501	725.5596313476562	614.5263671874999	-583.5078735351564	689.7347412109375	610.6899414062499	-497.1792297363282	667.0045776367188	594.2489013671874	-795.6102294921875	794.9794311523438	371.9751892089842	-662.2119750976562	754.6432495117188	264.8020629882811	-663.0214233398439	752.2717895507812	490.3730163574218	-629.3230590820312	579.8526000976562	221.9984283447264	-627.8746948242188	458.0905456542969	239.4244232177733	-573.706787109375	494.9746704101562	234.2530670166015	-637.35107421875	269.7498779296875	238.0462493896483	-739.8255615234375	211.133041381836	275.6237182617186	-603.0072631835938	178.3218536376953	241.4872283935546	-710.2006225585938	100.8248291015625	327.0338745117186	-577.6900634765625	55.70898818969728	273.4517822265624	-705.6072387695314	539.2403564453125	502.7406005859373	-762.6216430664064	439.2551269531251	482.6577758789061	-711.2079467773439	438.3998107910157	481.2520751953124	-799.4927978515626	234.1386108398438	476.4935607910155	-901.6615600585938	167.0946044921875	454.5659179687499	-759.1719360351562	146.0750122070313	458.7023925781249	-879.4246215820312	55.03517150878908	384.9549255371093	-728.7259521484375	46.77358245849612	429.8614807128905	-759.97607421875	783.806640625	377.5572509765623	-755.1080932617188	782.2891845703125	377.5587768554686	-759.957763671875	783.8602294921875	372.4585571289061	-744.8026123046875	832.4833984375	378.1233520507811	-532.2107543945314	725.01611328125	572.5868530273436	-600.2852172851562	38.80442428588869	246.835464477539	-752.5225219726562	28.92936515808108	458.3368225097655	-565.8742065429688	425.751953125	246.5775604248046	-729.4744262695314	384.9197692871094	467.717071533203	-685.3802490234375	97.67327880859376	277.7786254882812	-842.992431640625	66.11912536621097	434.501739501953	-561.9420776367188	421.8120727539062	298.5254211425781	-739.358154296875	385.0618591308594	415.8835449218749	-661.809814453125	102.3267364501953	308.9906616210937	-823.0431518554688	71.18139648437503	400.8164062499999	-642.9080200195312	564.4096069335938	218.6556701660155	-708.7050170898439	534.4661254882812	513.1122436523436	-666.6786499023438	260.8758544921875	226.6054382324218	-826.7855834960939	221.2974853515625	487.8569946289061	256.7200012207031	0.07899999618532701	396.4200134277344	-254.2699890136719	-0.2560999989509441	231.3000030517578	-740.5711669921875	2.586774664948437e-14	422.4523620605468	0	0	0	0	0	0	0	0	0	0	0	0	-711.13818359375	695.4036865234375	325.6785278320311	-712.1234130859375	693.8330078125	427.6419067382811	-562.8277587890625	428.8762817382812	249.6835021972655	-733.1384887695314	389.8746948242188	465.3744201660155	-555.175537109375	424.0618286132812	301.1405639648437	-734.489013671875	388.0083923339844	412.6578063964843	-0.005442910827696329	1.308242082595825	0.05306906625628463	256.7200012207031	0.07899999618532701	396.4200134277344	256.7200012207031	0.07899999618532701	396.4200134277344	256.7200012207031	0.07899999618532701	396.4200134277344	-254.2699890136719	-0.2560999989509441	231.3000030517578	-254.2699890136719	-0.2560999989509441	231.3000030517578	-254.2699890136719	-0.2560999989509441	231.3000030517578	-740.5711669921875	2.586774664948437e-14	422.4523620605468	-733.5215454101562	263.3353271484375	418.689727783203	-254.2699890136719	-0.2560999989509441	231.3000030517578	-17.31325531005859	0.01702664420008663	0.6362274289131143	-17.31325531005859	-0.01702664420008663	-0.6362274289131186	-23.1899356842041	-18.80990600585938	-3.752418041229249	-6.530943870544434	-14.36344718933105	-0.1314430236816405	-45.87897872924805	-2.188087224960328	-4.549239158630376	-12.2677583694458	10.93325328826904	1.554330945014951	-46.28021621704102	-28.99513053894043	4.006019592285153	-9.611514091491699	-38.78270721435547	2.345500469207765	5.10316276550293	14.6684455871582	1.129516124725342	-9.041752815246582	13.48798274993896	-1.75299382209778	-3.180554718589511e-15	1.192708045940846e-15	5.367186153794248e-15	1.590277359294755e-15	-3.975693398236886e-16	2.484808420220169e-15	-0.7150278687477112	0	-8.756565907630382e-17	-13.32790946960449	0	-1.632198167127684e-15	2.879640579223633	6.16224479675293	-3.089992046356201	2.879640579223632	-6.16224479675293	3.089992046356202	14.0919189453125	-5.969480514526367	-1.36449861526489	14.0919189453125	5.969480514526367	1.364498615264894	15.12756443023681	-6.147071361541747	10.50563526153565	-35.82132720947266	-1.760437065220777e-12	-3.194139324888114e-15	-5.301220417022706	106.5419845581055	7.349835872650139	3.625543355941769	18.64052391052246	24.54566192626953	-54.32684326171875	1.542569023904594e-12	-9.833674189413987e-15	-7.81558895111084	89.41049194335938	3.434833765029901	-3.156159162521362	5.949300289154053	-0.747417867183686	-3.156159162521362	-5.949300289154053	0.7474178671836853	0.2856001555919644	-0.09508429467678056	2.35029935836792	0.285600155591965	0.09508429467678056	-2.35029935836792	4.197325963788922e-34	0.05597331002354622	-3.427376747900917e-18	-3.123200150563749e-33	-0.4164933860301971	2.55028646033962e-17	9.631081953726743e-36	0.001284349942579865	-7.864375230827596e-20	-1.276127667402165e-33	-0.1701776087284088	1.042037319078983e-17	2.155442259402657e-34	0.02874383330345154	-1.760052172514851e-18	-4.495938923474229e-33	-0.5995545387268066	3.671212733830258e-17	nan	nan	nan	nan	nan	nan	nan	nan	nan	nan	nan	nan	-1.196454541368162e-34	-0.01595528237521648	9.769792745150523e-19	-2.050393186199941e-34	-0.02734295465052128	1.674273094599606e-18	-3.31115679932631e-35	-0.004415582865476608	2.703764711287913e-19	1.340797899430313e-35	0.001788016874343157	-1.094844570992901e-19	-1.044878287883703e-36	-0.0001393394195474684	8.532078707192866e-21	6.990736061059996e-36	0.0009322474361397326	-5.70836919340925e-20	256.7200012207031	0.07899999618532701	396.4200134277344	-254.2699890136719	-0.2560999989509441	231.3000030517578	-733.521484375	263.3353271484375	418.689727783203	-0.005442910827696329	1.308242082595825	0.05306906625628463	-0.4584319591522216	-5.73206615447998	-0.4611918926239011	0.3734347522258759	0.5820116996765137	0.2182512432336808	-1.596956849098206	-6.430927276611328	0.3736691772937776	0.2726407051086426	-0.1036790832877159	0.01752839609980587	-7.079338550567627	0.6208235025405884	0.03431659191846757	0	0	0	0	0	0	0	0	0	0	0	0	0	0	0	0	0	0	nan	nan	nan	nan	nan	nan	nan	nan	nan	nan	nan	nan	-0.05278607085347174	0.425648033618927	-0.1307162642478943	-0.1610437035560608	0.3739511072635651	0.04401526972651477	0.09257031977176666	0.1801434755325317	-0.05032940208911896	0.08371889591217041	0.1689221262931824	0.01431127078831196	-0.02365359477698803	0.04990841075778008	-0.02425952441990376	-0.008869463577866558	0.04362689703702927	0.02987624891102314	256.7200012207031	0.07899999618532701	396.4200134277344	0	0	0	-254.2699890136719	-0.2560999989509441	231.3000030517578	0	0	0	-733.521484375	263.3353271484375	418.689727783203	0	0	0	-74.16864013671875	-7.566804885864257	15.85773944854735	51.93551635742186	26.12774658203126	117.4887771606445	42.20658493041991	3.395785331726076	37.80736541748048	79.49431610107422	24.78614234924316	26.55484199523927	12.35467529296875	1.047911763191223	0.6913322806358352	-623.9633178710938	19.8198413848877	4.601627826690597	nan	nan	nan	nan	nan	nan	nan	nan	nan	nan	nan	nan	nan	nan	nan	nan	nan	nan	3.928494691848752	-3.109907150268553	23.83962059020996	-20.44989967346191	-2.49053931236267	5.232848644256589	12.86776638031006	0.1429805010557178	5.511815071105959	11.43424129486084	0.01537061855196972	3.076853513717653	-1.070977807044983	-1.136414491427255e-16	1.340800642967224	-0.6548560261726382	-9.903027734910841e-16	1.808601021766663	0	0	0	0	0	0	0	0	0	
